# xmcd
#
# Track frame offsets:
#	150
#	15345
#	25107
#	42247
#	56220
#	74352
#	91845
#	106287
#	119635
#	132825
#	149422
#	161725
#
# Disc length: 2337
#
# Revision: 1
# Processed by: cddbd v1.5.1PL0 Copyright (c) Steve Scherf et al.
# Submitted via: VisiTrax 2.9.5.180 - For more info visit www.synapsa.com
# Normalized: r0:DSETVAR1
#
DISCID=a4091f0c
DTITLE=Various Artist - CDX 97 November 1994
DYEAR=1994
DGENRE=
TTITLE0=John Anderson - Bend it until it breaks
TTITLE1=Marty Stuart - Don't be cruel (to a heart that's true)
TTITLE2=Blackhawk - Down in flames
TTITLE3=Hank Williams Jr. - I ain't goin' peacefully
TTITLE4=Ken Mellons - I can bring her back
TTITLE5=George Ducas - Lipstick promises
TTITLE6=Bryan White - Look at me now
TTITLE7=Mary Chapin Carpenter - Tender when I want to be
TTITLE8=Barbara Mandrell - Ten pound hammer
TTITLE9=Diamond Rio - Lee Roy Parnell - Steve Wariner - Workin' man blues
TTITLE10=Pirates of the Mississippi - You could do better
TTITLE11=Perfect Stranger - Ridin' the rodeo
EXTD=
EXTT0=
EXTT1=
EXTT2=
EXTT3=
EXTT4=
EXTT5=
EXTT6=
EXTT7=
EXTT8=
EXTT9=
EXTT10=
EXTT11=
PLAYORDER=
